<svg width="18" height="24" viewBox="0 0 18 24" fill="none" xmlns="http://www.w3.org/2000/svg">
<path fill-rule="evenodd" clip-rule="evenodd" d="M8.64001 23.2933C5.46869 23.578 2.32891 22.4795 0.0266724 20.28L3.60001 16.7067C5.04138 17.8517 6.85609 18.4218 8.69334 18.3067C10.88 18.3067 11.9467 17.56 11.9467 16.2533C11.9726 15.7671 11.8103 15.2896 11.4933 14.92C11.0676 14.5758 10.5462 14.371 10 14.3333L7.33334 13.96C5.62024 13.8187 4.00459 13.1048 2.74667 11.9333C1.64252 10.6796 1.07719 9.04116 1.17334 7.37333C1.17334 3.21333 4.32001 0.173331 9.49334 0.173331C12.3133 -0.0486757 15.0977 0.918138 17.1733 2.84L13.5733 6.33333C12.3858 5.29779 10.8199 4.80484 9.25334 4.97333C7.30667 4.97333 6.58668 6.09333 6.58668 7.08C6.59382 7.48087 6.75635 7.86331 7.04001 8.14667C7.46892 8.54825 8.02648 8.7845 8.61334 8.81333L11.28 9.21333C12.9386 9.32332 14.514 9.97974 15.76 11.08C16.9746 12.4447 17.5811 14.2452 17.44 16.0667C17.44 20.76 13.44 23.2933 8.64001 23.2933Z" fill="#263640"/>
</svg>
