<svg width="18" height="24" viewBox="0 0 18 24" fill="none" xmlns="http://www.w3.org/2000/svg">
<path fill-rule="evenodd" clip-rule="evenodd" d="M8.84001 23.2934C5.66016 23.5824 2.51045 22.4839 0.200012 20.28L3.66668 16.7067C5.11163 17.845 6.92369 18.4143 8.76002 18.3067C10.9734 18.3067 12.0134 17.56 12.0134 16.2534C12.0364 15.772 11.8849 15.2986 11.5867 14.92C11.157 14.5611 10.6252 14.3465 10.0667 14.3067L7.40002 13.9334C5.69628 13.7862 4.0909 13.0727 2.84001 11.9067C1.7255 10.6591 1.15866 9.01615 1.26669 7.3467C1.26669 3.1867 4.38669 0.1467 9.58669 0.1467C12.3985 -0.0743092 15.1743 0.892875 17.24 2.81337L13.7733 6.33337C12.5858 5.29783 11.0199 4.80488 9.45335 4.97337C7.48001 4.97337 6.78668 6.09337 6.78668 7.08003C6.79383 7.48091 6.95636 7.86334 7.24001 8.1467C7.66892 8.54829 8.22649 8.78454 8.81335 8.81337L11.48 9.21337C13.1386 9.32335 14.714 9.97978 15.96 11.08C17.1953 12.434 17.8134 14.2398 17.6667 16.0667C17.64 20.76 13.64 23.2934 8.84001 23.2934Z" fill="#263640"/>
</svg>
