<svg width="18" height="24" viewBox="0 0 18 24" fill="none" xmlns="http://www.w3.org/2000/svg">
<path fill-rule="evenodd" clip-rule="evenodd" d="M8.84001 23.2934C5.66016 23.5824 2.51045 22.4839 0.200012 20.2801L3.66668 16.7067C5.11163 17.8451 6.92369 18.4143 8.76002 18.3067C10.9734 18.3067 12.0134 17.5601 12.0134 16.2534C12.0364 15.7721 11.8849 15.2986 11.5867 14.9201C11.157 14.5611 10.6252 14.3465 10.0667 14.3067L7.40002 13.9334C5.69628 13.7863 4.0909 13.0728 2.84001 11.9067C1.7255 10.6591 1.15866 9.0162 1.26669 7.34675C1.26669 3.18675 4.38669 0.146746 9.58669 0.146746C12.3985 -0.0742634 15.1743 0.892921 17.24 2.81341L13.7733 6.33341C12.5858 5.29788 11.0199 4.80493 9.45335 4.97341C7.48001 4.97341 6.78668 6.09341 6.78668 7.08008C6.79383 7.48095 6.95636 7.86339 7.24001 8.14675C7.66892 8.54833 8.22649 8.78459 8.81335 8.81341L11.48 9.21341C13.1386 9.3234 14.714 9.97982 15.96 11.0801C17.1953 12.434 17.8134 14.2398 17.6667 16.0667C17.64 20.7601 13.64 23.2934 8.84001 23.2934Z" fill="white"/>
</svg>
