<svg width="18" height="24" viewBox="0 0 18 24" fill="none" xmlns="http://www.w3.org/2000/svg">
<path fill-rule="evenodd" clip-rule="evenodd" d="M8.64001 23.2934C5.46869 23.578 2.32891 22.4796 0.0266724 20.28L3.60001 16.7067C5.04138 17.8518 6.85609 18.4219 8.69334 18.3067C10.88 18.3067 11.9467 17.56 11.9467 16.2534C11.9726 15.7672 11.8103 15.2897 11.4933 14.92C11.0676 14.5758 10.5462 14.371 10 14.3334L7.33334 13.96C5.62024 13.8187 4.00459 13.1048 2.74667 11.9334C1.64252 10.6797 1.07719 9.04121 1.17334 7.37338C1.17334 3.21338 4.32001 0.173377 9.49334 0.173377C12.3133 -0.0486299 15.0977 0.918184 17.1733 2.84004L13.5733 6.33338C12.3858 5.29784 10.8199 4.80489 9.25334 4.97338C7.30667 4.97338 6.58668 6.09338 6.58668 7.08004C6.59382 7.48092 6.75635 7.86335 7.04001 8.14671C7.46892 8.5483 8.02648 8.78455 8.61334 8.81338L11.28 9.21338C12.9386 9.32336 14.514 9.97979 15.76 11.08C16.9746 12.4448 17.5811 14.2452 17.44 16.0667C17.44 20.76 13.44 23.2934 8.64001 23.2934Z" fill="white"/>
</svg>
